<mxfile host="app.diagrams.net" modified="2023-06-30T06:29:11.486Z" agent="Mozilla/5.0 (Windows NT 10.0; Win64; x64) AppleWebKit/537.36 (KHTML, like Gecko) Chrome/114.0.0.0 Safari/537.36" etag="MVlVGXVfpkCIjlTF-tZu" version="21.5.2" type="device">
  <diagram name="Page-1" id="g5TwQxjuDGGNOl_sV3tZ">
    <mxGraphModel dx="1050" dy="515" grid="1" gridSize="10" guides="1" tooltips="1" connect="1" arrows="1" fold="1" page="1" pageScale="1" pageWidth="850" pageHeight="1100" math="0" shadow="0">
      <root>
        <mxCell id="0" />
        <mxCell id="1" parent="0" />
        <mxCell id="DdE2lUpwwYeLY3H1AUyL-3" value="" style="edgeStyle=orthogonalEdgeStyle;rounded=0;orthogonalLoop=1;jettySize=auto;html=1;" edge="1" parent="1" source="DdE2lUpwwYeLY3H1AUyL-1" target="DdE2lUpwwYeLY3H1AUyL-2">
          <mxGeometry relative="1" as="geometry" />
        </mxCell>
        <mxCell id="DdE2lUpwwYeLY3H1AUyL-1" value="&lt;font style=&quot;font-size: 25px;&quot;&gt;شروع&lt;/font&gt;" style="ellipse;whiteSpace=wrap;html=1;fillColor=#d5e8d4;strokeColor=#82b366;gradientColor=#97d077;" vertex="1" parent="1">
          <mxGeometry x="340" y="10" width="120" height="80" as="geometry" />
        </mxCell>
        <mxCell id="DdE2lUpwwYeLY3H1AUyL-5" value="" style="edgeStyle=orthogonalEdgeStyle;rounded=0;orthogonalLoop=1;jettySize=auto;html=1;" edge="1" parent="1" source="DdE2lUpwwYeLY3H1AUyL-2" target="DdE2lUpwwYeLY3H1AUyL-4">
          <mxGeometry relative="1" as="geometry" />
        </mxCell>
        <mxCell id="DdE2lUpwwYeLY3H1AUyL-2" value="&lt;font style=&quot;font-size: 21px;&quot;&gt;t = 0&lt;br&gt;i = 0&lt;/font&gt;" style="rounded=0;whiteSpace=wrap;html=1;fillColor=#dae8fc;gradientColor=#7ea6e0;strokeColor=#6c8ebf;" vertex="1" parent="1">
          <mxGeometry x="340" y="110" width="120" height="60" as="geometry" />
        </mxCell>
        <mxCell id="DdE2lUpwwYeLY3H1AUyL-7" value="" style="edgeStyle=orthogonalEdgeStyle;rounded=0;orthogonalLoop=1;jettySize=auto;html=1;" edge="1" parent="1" source="DdE2lUpwwYeLY3H1AUyL-4" target="DdE2lUpwwYeLY3H1AUyL-6">
          <mxGeometry relative="1" as="geometry" />
        </mxCell>
        <mxCell id="DdE2lUpwwYeLY3H1AUyL-4" value="&lt;div style=&quot;direction: rtl;&quot;&gt;&lt;span style=&quot;background-color: initial;&quot;&gt;&lt;font style=&quot;font-size: 22px;&quot;&gt;nرا بگیر&lt;/font&gt;&lt;/span&gt;&lt;/div&gt;" style="shape=parallelogram;perimeter=parallelogramPerimeter;whiteSpace=wrap;html=1;fixedSize=1;fillColor=#f8cecc;gradientColor=#ea6b66;strokeColor=#b85450;" vertex="1" parent="1">
          <mxGeometry x="340" y="190" width="120" height="60" as="geometry" />
        </mxCell>
        <mxCell id="DdE2lUpwwYeLY3H1AUyL-9" value="" style="edgeStyle=orthogonalEdgeStyle;rounded=0;orthogonalLoop=1;jettySize=auto;html=1;" edge="1" parent="1" source="DdE2lUpwwYeLY3H1AUyL-6" target="DdE2lUpwwYeLY3H1AUyL-8">
          <mxGeometry relative="1" as="geometry" />
        </mxCell>
        <mxCell id="DdE2lUpwwYeLY3H1AUyL-6" value="&lt;font style=&quot;font-size: 20px;&quot;&gt;t = t + n&lt;br&gt;i = i + 1&lt;/font&gt;" style="rounded=0;whiteSpace=wrap;html=1;fillColor=#fff2cc;gradientColor=#ffd966;strokeColor=#d6b656;" vertex="1" parent="1">
          <mxGeometry x="340" y="270" width="120" height="60" as="geometry" />
        </mxCell>
        <mxCell id="DdE2lUpwwYeLY3H1AUyL-10" style="edgeStyle=orthogonalEdgeStyle;rounded=0;orthogonalLoop=1;jettySize=auto;html=1;entryX=0;entryY=0.5;entryDx=0;entryDy=0;" edge="1" parent="1" source="DdE2lUpwwYeLY3H1AUyL-8" target="DdE2lUpwwYeLY3H1AUyL-4">
          <mxGeometry relative="1" as="geometry">
            <mxPoint x="140" y="200" as="targetPoint" />
            <Array as="points">
              <mxPoint x="250" y="390" />
              <mxPoint x="250" y="220" />
            </Array>
          </mxGeometry>
        </mxCell>
        <mxCell id="DdE2lUpwwYeLY3H1AUyL-13" value="" style="edgeStyle=orthogonalEdgeStyle;rounded=0;orthogonalLoop=1;jettySize=auto;html=1;" edge="1" parent="1" source="DdE2lUpwwYeLY3H1AUyL-8" target="DdE2lUpwwYeLY3H1AUyL-12">
          <mxGeometry relative="1" as="geometry" />
        </mxCell>
        <mxCell id="DdE2lUpwwYeLY3H1AUyL-8" value="&lt;font style=&quot;font-size: 19px;&quot;&gt;i &amp;lt; 5 ?&lt;/font&gt;" style="rhombus;whiteSpace=wrap;html=1;fillColor=#ffcd28;gradientColor=#ffa500;strokeColor=#d79b00;" vertex="1" parent="1">
          <mxGeometry x="360" y="350" width="80" height="80" as="geometry" />
        </mxCell>
        <mxCell id="DdE2lUpwwYeLY3H1AUyL-11" value="&lt;font style=&quot;font-size: 20px;&quot;&gt;بله&lt;/font&gt;" style="text;html=1;strokeColor=none;fillColor=none;align=center;verticalAlign=middle;whiteSpace=wrap;rounded=0;" vertex="1" parent="1">
          <mxGeometry x="270" y="360" width="60" height="30" as="geometry" />
        </mxCell>
        <mxCell id="DdE2lUpwwYeLY3H1AUyL-15" value="" style="edgeStyle=orthogonalEdgeStyle;rounded=0;orthogonalLoop=1;jettySize=auto;html=1;" edge="1" parent="1" source="DdE2lUpwwYeLY3H1AUyL-12" target="DdE2lUpwwYeLY3H1AUyL-14">
          <mxGeometry relative="1" as="geometry" />
        </mxCell>
        <mxCell id="DdE2lUpwwYeLY3H1AUyL-12" value="&lt;div style=&quot;direction: rtl;&quot;&gt;&lt;span style=&quot;background-color: initial;&quot;&gt;&lt;font style=&quot;font-size: 22px;&quot;&gt;t را نمایش بده&lt;/font&gt;&lt;/span&gt;&lt;/div&gt;" style="shape=document;whiteSpace=wrap;html=1;boundedLbl=1;fillColor=#e6d0de;gradientColor=#d5739d;strokeColor=#996185;" vertex="1" parent="1">
          <mxGeometry x="340" y="460" width="120" height="80" as="geometry" />
        </mxCell>
        <mxCell id="DdE2lUpwwYeLY3H1AUyL-14" value="&lt;font style=&quot;font-size: 25px;&quot;&gt;پایان&lt;/font&gt;" style="ellipse;whiteSpace=wrap;html=1;fillColor=#d5e8d4;strokeColor=#82b366;gradientColor=#97d077;" vertex="1" parent="1">
          <mxGeometry x="340" y="570" width="120" height="80" as="geometry" />
        </mxCell>
        <mxCell id="DdE2lUpwwYeLY3H1AUyL-16" value="&lt;font style=&quot;font-size: 20px;&quot;&gt;خیر&lt;/font&gt;" style="text;html=1;strokeColor=none;fillColor=none;align=center;verticalAlign=middle;whiteSpace=wrap;rounded=0;" vertex="1" parent="1">
          <mxGeometry x="340" y="430" width="60" height="30" as="geometry" />
        </mxCell>
        <mxCell id="DdE2lUpwwYeLY3H1AUyL-17" value="&lt;font style=&quot;font-size: 20px;&quot;&gt;فلوچارت محاسبه مجموع 5 عدد&lt;/font&gt;" style="text;html=1;strokeColor=#666666;fillColor=#f5f5f5;align=center;verticalAlign=middle;whiteSpace=wrap;rounded=0;gradientColor=#b3b3b3;" vertex="1" parent="1">
          <mxGeometry x="570" y="35" width="220" height="75" as="geometry" />
        </mxCell>
      </root>
    </mxGraphModel>
  </diagram>
</mxfile>
